<svg version="1.1" xmlns="http://www.w3.org/2000/svg" xmlns:xlink="http://www.w3.org/1999/xlink" width="141.4971" height="51.11766" viewBox="0,0,141.4971,51.11766"><g transform="translate(-168.2117,-250.69159)"><g data-paper-data="{&quot;isPaintingLayer&quot;:true}" fill-rule="nonzero" stroke-linecap="butt" stroke-linejoin="miter" stroke-miterlimit="10" stroke-dasharray="" stroke-dashoffset="0" style="mix-blend-mode: normal"><path d="M247.35747,266.57327l-24.19231,15.93189l-0.79975,-31.35397z" fill="#000000" stroke="none" stroke-width="0"/><text transform="translate(220.96968,297.57532) scale(0.33872,0.33872)" font-size="40" xml:space="preserve" fill="#000000" fill-rule="nonzero" stroke="none" stroke-width="1" stroke-linecap="butt" stroke-linejoin="miter" stroke-miterlimit="10" stroke-dasharray="" stroke-dashoffset="0" font-family="Sans Serif" font-weight="normal" text-anchor="start" style="mix-blend-mode: normal"><tspan x="0" dy="0">Play</tspan></text><path d="M173.601,276.97562v-26.28403h21.3056v31.25669h-15.21829z" fill="#000000" stroke="none" stroke-width="0"/><path d="M176.71396,274.27699v-18.60331h15.07968v22.12285h-10.7712z" fill="#ffffff" stroke="none" stroke-width="0"/><text transform="translate(168.38106,297.57532) scale(0.33872,0.33872)" font-size="40" xml:space="preserve" fill="#000000" fill-rule="nonzero" stroke="none" stroke-width="1" stroke-linecap="butt" stroke-linejoin="miter" stroke-miterlimit="10" stroke-dasharray="" stroke-dashoffset="0" font-family="Sans Serif" font-weight="normal" text-anchor="start" style="mix-blend-mode: normal"><tspan x="0" dy="0">Load</tspan></text><path d="M280.48415,282.39299v-30.24021h5.78122v30.24021z" fill="#ffffff" stroke="#000000" stroke-width="2.5"/><path d="M269.25465,264.38228h30.24021v5.78122h-30.24021z" fill="#ffffff" stroke="#000000" stroke-width="2.5"/><path d="M271.63926,275.92044l21.38306,-21.38306l4.08794,4.08794l-21.38306,21.38306z" fill="#ffffff" stroke="#000000" stroke-width="2.5"/><path d="M275.7272,254.53739l21.38306,21.38306l-4.08794,4.08794l-21.38306,-21.38306z" fill="#ffffff" stroke="#000000" stroke-width="2.5"/><path d="M274.59116,267.27288c0,-5.40333 4.38027,-9.7836 9.78359,-9.7836c5.40333,0 9.78359,4.38027 9.78359,9.7836c0,5.40333 -4.38027,9.7836 -9.78359,9.7836c-5.40333,0 -9.78359,-4.38027 -9.78359,-9.7836z" fill="#ffffff" stroke="#ffffff" stroke-width="0"/><path d="M276.92588,267.27288c0,-4.1139 3.33497,-7.44887 7.44887,-7.44887c4.1139,0 7.44887,3.33497 7.44887,7.44887c0,4.1139 -3.33497,7.44888 -7.44887,7.44888c-4.1139,0 -7.44887,-3.33498 -7.44887,-7.44888z" fill="#000000" stroke="#ffffff" stroke-width="0"/><text transform="translate(256.44057,297.57532) scale(0.33872,0.33872)" font-size="40" xml:space="preserve" fill="#000000" fill-rule="nonzero" stroke="none" stroke-width="1" stroke-linecap="butt" stroke-linejoin="miter" stroke-miterlimit="10" stroke-dasharray="" stroke-dashoffset="0" font-family="Sans Serif" font-weight="normal" text-anchor="start" style="mix-blend-mode: normal"><tspan x="0" dy="0">Settings</tspan></text></g></g></svg>